# xmcd
#
# Track frame offsets:
# 150
# 13164
# 31221
# 46209
# 63711
# 77716
# 93840
# 111214
# 127680
# 142186
# 160508
# 177062
# 193406
# 204967
#
# Disc length: 2930 seconds
#
#
# Revision: 0
# Processed by: cddbd v1.5.2PL0 Copyright (c) Steve Scherf et al.
# Submitted via: FreeRIP 2.95 
#
DISCID=b50b700e
DTITLE=Leandro and Leonardo - Seleção de Sucessos-Leandro and Leonardo de 1986 a 1989
DYEAR=2005
DGENRE=Sertanejo
TTITLE0=Contradições
TTITLE1=Solidão
TTITLE2=Entre Tapas e Beijos
TTITLE3=Bem Ti Vi
TTITLE4=Filme de Amor
TTITLE5=Quem Será Essa Mulher
TTITLE6=É Por Você Que Canto(The Sounds Of Silence)
TTITLE7=Aqueles Olhos
TTITLE8=Teu Olhar
TTITLE9=O Amor Já Foi Embora
TTITLE10=Quebra Esse Gelo
TTITLE11=Aconchego
TTITLE12=Explosão de Desejos
TTITLE13=Luar do Sertão
EXTD=by Magno
EXTT0=
EXTT1=
EXTT2=
EXTT3=
EXTT4=
EXTT5=
EXTT6=
EXTT7=
EXTT8=
EXTT9=
EXTT10=
EXTT11=
EXTT12=
EXTT13=
PLAYORDER=
